<?xml version="1.0" encoding="UTF-8"?>
<svg xmlns="http://www.w3.org/2000/svg" xmlns:xlink="http://www.w3.org/1999/xlink" width="512px" height="512px" viewBox="0 0 512 512" version="1.1">
<g id="surface1">
<path style="fill:none;stroke-width:50;stroke-linecap:butt;stroke-linejoin:miter;stroke:rgb(0%,60.000002%,100%);stroke-opacity:1;stroke-miterlimit:10;" d="M 849.001328 437 C 849.001328 450.909637 848.307846 464.659241 846.960892 478.222137 C 836.952087 578.990326 790.62886 669.089569 721.26738 735.230362 C 647.331589 805.712082 547.216873 849.001328 437 849.001328 C 209.458069 849.001328 24.998672 664.541931 24.998672 437 C 24.998672 423.090363 25.692154 409.340759 27.039108 395.777863 C 37.047913 295.009674 83.37114 204.910431 152.73262 138.769638 C 226.668411 68.287918 326.783127 24.998672 437 24.998672 C 664.541931 24.998672 849.001328 209.458069 849.001328 437 Z M 849.001328 437 " transform="matrix(0.585812,0,0,0.585812,0,0)"/>
<path style=" stroke:none;fill-rule:nonzero;fill:rgb(0%,60.000002%,100%);fill-opacity:1;" d="M 461.621094 276.671875 C 456.601562 327.21875 433.367188 372.40625 398.582031 405.574219 L 376.710938 284.828125 C 375.867188 280.171875 370.144531 278.382812 366.800781 281.734375 L 366.402344 282.128906 C 339.085938 309.445312 323.003906 346.109375 321.890625 384.71875 C 321.503906 397.917969 320.109375 412.878906 316.925781 428.816406 C 308.5 470.957031 247.828125 469.535156 241.582031 427.015625 C 235.238281 391.152344 228.421875 353.011719 223.011719 323.835938 C 217.535156 294.246094 213.511719 273.886719 212.929688 274.464844 C 212.902344 274.488281 212.847656 274.546875 212.773438 274.621094 C 159.46875 326.328125 72.59375 302.277344 50.386719 235.339844 C 55.40625 184.792969 78.640625 139.605469 113.425781 106.4375 L 135.292969 227.183594 C 136.136719 231.839844 141.859375 233.628906 145.207031 230.277344 L 145.605469 229.882812 C 172.921875 202.566406 189 165.902344 190.113281 127.292969 C 190.5 114.09375 191.894531 99.132812 195.082031 83.195312 C 203.503906 41.054688 264.179688 42.476562 270.421875 84.996094 C 276.765625 120.859375 283.585938 159 288.992188 188.175781 C 294.46875 217.765625 298.496094 238.125 299.074219 237.546875 C 299.105469 237.523438 299.15625 237.464844 299.234375 237.390625 C 352.535156 185.683594 439.410156 209.734375 461.621094 276.671875 Z M 461.621094 276.671875 "/>
</g>
</svg>
