<?xml version="1.0" encoding="UTF-8"?>
<svg id="Layer_2" data-name="Layer 2" xmlns="http://www.w3.org/2000/svg" viewBox="0 0 874 874">
  <defs>
    <style>
      .cls-1 {
        fill: #09f;
        stroke-width: 0px;
      }

      .cls-2 {
        fill: none;
        stroke: #09f;
        stroke-miterlimit: 10;
        stroke-width: 50px;
      }
    </style>
  </defs>
  <g id="Layer_3" data-name="Layer 3">
    <path class="cls-2" d="M849,437c0,13.91-.69,27.66-2.04,41.22-10.01,100.77-56.33,190.87-125.69,257.01-73.94,70.48-174.05,113.77-284.27,113.77-227.54,0-412-184.46-412-412,0-13.91.69-27.66,2.04-41.22,10.01-100.77,56.33-190.87,125.69-257.01C226.67,68.29,326.78,25,437,25c227.54,0,412,184.46,412,412Z"/>
    <path class="cls-1" d="M788,472.29c-8.57,86.28-48.23,163.42-107.61,220.04l-37.33-206.12c-1.44-7.95-11.21-11-16.92-5.28l-.68.67c-46.63,46.63-74.08,109.22-75.98,175.13-.66,22.53-3.04,48.07-8.48,75.27-14.38,71.94-117.95,69.51-128.61-3.07-10.83-61.22-22.47-126.33-31.7-176.13-9.35-50.51-16.22-85.27-17.21-84.28-.05.04-.14.14-.27.27-90.99,88.26-239.29,47.21-277.2-67.06,8.57-86.28,48.23-163.42,107.61-220.04l37.33,206.12c1.44,7.95,11.21,11,16.92,5.28l.68-.67c46.63-46.63,74.08-109.22,75.98-175.13.66-22.53,3.04-48.07,8.48-75.27,14.38-71.94,117.95-69.51,128.61,3.07,10.83,61.22,22.47,126.33,31.7,176.13,9.35,50.51,16.22,85.27,17.21,84.28.05-.04.14-.14.27-.27,90.99-88.26,239.29-47.21,277.2,67.06Z"/>
  </g>
</svg>